<?xml version="1.0" standalone="no"?>
<!DOCTYPE svg PUBLIC "-//W3C//DTD SVG 20010904//EN"
 "http://www.w3.org/TR/2001/REC-SVG-20010904/DTD/svg10.dtd">
<svg version="1.0" xmlns="http://www.w3.org/2000/svg"
 height="100%" width="100%" viewBox="0 0 340.000000 321.000000"
 preserveAspectRatio="xMidYMid meet">

<g transform="translate(0.000000,321.000000) scale(0.100000,-0.100000)"
fill="#5D3FD3" stroke="none">
<path d="M1625 2780 c-225 -45 -414 -229 -460 -447 -18 -86 -18 -140 0 -227
29 -137 98 -248 198 -322 69 -51 137 -89 137 -76 0 5 -36 64 -80 131 -94 144
-122 196 -144 270 -43 145 3 306 121 425 100 101 214 148 358 148 204 -1 370
-104 454 -282 23 -50 26 -67 26 -175 0 -114 -2 -123 -31 -185 -38 -79 -96
-147 -164 -190 -75 -48 -81 -111 -11 -118 39 -4 107 43 184 129 91 99 137 224
137 369 0 255 -179 472 -446 540 -80 21 -203 25 -279 10z"/>
<path d="M1645 2616 c-179 -43 -309 -192 -322 -369 -7 -89 13 -165 65 -252 80
-132 204 -320 215 -326 7 -4 38 -10 70 -14 l58 -7 -16 32 c-9 17 -72 121 -140
231 -130 211 -153 266 -141 342 17 108 99 208 205 248 161 60 364 -27 415
-178 44 -130 -9 -282 -122 -349 -59 -34 -51 -104 12 -104 59 0 172 109 212
206 39 93 36 217 -7 309 -30 63 -116 155 -176 188 -99 53 -220 69 -328 43z"/>
<path d="M1681 2455 c-97 -27 -161 -95 -181 -190 -14 -69 -2 -119 50 -200 21
-33 86 -138 145 -234 l108 -174 54 6 c30 3 57 8 60 10 4 5 -147 256 -229 381
-80 122 -93 168 -63 226 44 86 158 105 225 39 61 -62 58 -141 -10 -202 -44
-39 -50 -65 -22 -90 42 -38 109 -6 157 77 52 89 42 193 -27 271 -72 81 -163
109 -267 80z"/>
<path d="M890 1305 l0 -65 127 0 127 0 -64 65 -64 65 -63 0 -63 0 0 -65z"/>
<path d="M1160 1305 l0 -65 65 0 65 0 0 65 0 65 -65 0 -65 0 0 -65z"/>
<path d="M1400 1305 l-64 -65 122 0 122 0 0 65 0 65 -58 0 -58 0 -64 -65z"/>
<path d="M1770 1102 l0 -268 65 -64 65 -64 0 332 0 332 -65 0 -65 0 0 -268z"/>
<path d="M2040 1110 l0 -260 65 0 65 0 0 260 0 260 -65 0 -65 0 0 -260z"/>
<path d="M2280 1305 l-64 -65 197 0 197 0 0 65 0 65 -133 0 -133 0 -64 -65z"/>
<path d="M1600 1242 l0 -122 65 0 65 0 0 58 0 58 -65 64 -65 64 0 -122z"/>
<path d="M1020 960 l0 -260 65 0 65 0 0 260 0 260 -65 0 -65 0 0 -260z"/>
<path d="M1330 960 l0 -260 65 0 65 0 0 260 0 260 -65 0 -65 0 0 -260z"/>
<path d="M2220 1165 l0 -55 60 0 60 0 0 55 0 55 -60 0 -60 0 0 -55z"/>
<path d="M1480 1035 l0 -65 58 0 58 0 64 65 64 65 -122 0 -122 0 0 -65z"/>
<path d="M2280 1035 l-64 -65 197 0 197 0 0 65 0 65 -133 0 -133 0 -64 -65z"/>
<path d="M1600 832 l0 -132 65 0 65 0 0 68 0 68 -65 64 -65 64 0 -132z"/>
<path d="M2220 887 l0 -63 60 -59 60 -59 0 122 0 122 -60 0 -60 0 0 -63z"/>
<path d="M1930 765 l0 -65 53 0 c51 0 54 1 117 65 l64 65 -117 0 -117 0 0 -65z"/>
<path d="M2370 765 l0 -65 120 0 120 0 0 65 0 65 -120 0 -120 0 0 -65z"/>
<path d="M1124 528 c14 -35 29 -75 35 -90 8 -22 17 -28 40 -28 28 0 31 5 61
83 18 45 34 85 37 90 2 4 -9 7 -26 7 -28 0 -31 -4 -50 -62 -20 -67 -22 -66
-46 14 -10 38 -16 43 -43 46 l-32 3 24 -63z"/>
<path d="M1690 521 c0 -63 2 -71 26 -90 37 -29 89 -27 119 4 22 21 25 33 25
90 l0 65 -30 0 -30 0 0 -64 c0 -50 -4 -65 -16 -70 -30 -11 -44 13 -44 75 0 56
-1 59 -25 59 -24 0 -25 -2 -25 -69z"/>
<path d="M2250 500 l0 -90 75 0 c68 0 75 2 75 19 0 17 -8 20 -47 23 -63 4 -71
28 -9 28 39 0 46 3 46 19 0 16 -8 20 -42 23 -63 5 -62 28 1 28 44 0 51 3 51
20 0 18 -7 20 -75 20 l-75 0 0 -90z"/>
</g>
</svg>
